HIERARCHY
ROOT hip
{
  OFFSET 0.00112043 5.09927 -9.65472
  CHANNELS 6 Xposition Yposition Zposition Zrotation Xrotation Yrotation
  JOINT abdomen
  {
    OFFSET 0 -1.186 -1.5018
    CHANNELS 3 Zrotation Xrotation Yrotation
    JOINT abdomen2
    {
      OFFSET 0 9.964 0.2134
      CHANNELS 3 Zrotation Xrotation Yrotation
      JOINT chest
      {
        OFFSET 0 13.134 -3.2573
        CHANNELS 3 Zrotation Xrotation Yrotation
        JOINT neck
        {
          OFFSET 0 20.686 -1.6905
          CHANNELS 3 Zrotation Xrotation Yrotation
          JOINT head
          {
            OFFSET 0 7.238 -0.1237
            CHANNELS 3 Zrotation Xrotation Yrotation
            End Site
            {
              OFFSET 0 0 0
            }
          }
        }
        JOINT lCollar
        {
          OFFSET 1.7069 20.075 5.0056
          CHANNELS 3 Zrotation Xrotation Yrotation
          JOINT lShldr
          {
            OFFSET 13.6458 -0.047 -4.849
            CHANNELS 3 Zrotation Xrotation Yrotation
            JOINT lForeArm
            {
              OFFSET 28.3255 -0.9759 2.2888
              CHANNELS 3 Zrotation Xrotation Yrotation
              JOINT lHand
              {
                OFFSET 22.1583 -0.53 10.8316
                CHANNELS 3 Zrotation Xrotation Yrotation
                JOINT lThumb1
                {
                  OFFSET 0.786 0.112 2.5817
                  CHANNELS 3 Zrotation Xrotation Yrotation
                  JOINT lThumb2
                  {
                    OFFSET 0.3601 -0.878 4.2331
                    CHANNELS 3 Zrotation Xrotation Yrotation
                    JOINT lThumb2_End
                    {
                      OFFSET 1.8127 -1.216 2.2227
                      CHANNELS 3 Zrotation Xrotation Yrotation
                      End Site
                      {
                        OFFSET 0.0181 -0.0122 0.0222
                      }
                    }
                  }
                }
                JOINT lCarpal1
                {
                  OFFSET 0.9571 1.114 1.7695
                  CHANNELS 3 Zrotation Xrotation Yrotation
                  JOINT lIndex1
                  {
                    OFFSET 4.1246 0.487 4.1451
                    CHANNELS 3 Zrotation Xrotation Yrotation
                    JOINT lIndex2
                    {
                      OFFSET 3.4052 -1.454 2.7682
                      CHANNELS 3 Zrotation Xrotation Yrotation
                      JOINT lIndex2_End
                      {
                        OFFSET 1.4531 -1.795 1.2713
                        CHANNELS 3 Zrotation Xrotation Yrotation
                        End Site
                        {
                          OFFSET 0.0145 -0.0179 0.0127
                        }
                      }
                    }
                  }
                  JOINT lMid1
                  {
                    OFFSET 5.6954 0.21 2.1184
                    CHANNELS 3 Zrotation Xrotation Yrotation
                    JOINT lMid2
                    {
                      OFFSET 3.9766 -1.54 2.3863
                      CHANNELS 3 Zrotation Xrotation Yrotation
                      JOINT lMid2_End
                      {
                        OFFSET 1.4042 -1.926 1.125
                        CHANNELS 3 Zrotation Xrotation Yrotation
                        End Site
                        {
                          OFFSET 0.014 -0.0193 0.0113
                        }
                      }
                    }
                  }
                }
                JOINT lCarpal2
                {
                  OFFSET 2.0956 0.66 -0.3894
                  CHANNELS 3 Zrotation Xrotation Yrotation
                  JOINT lRing1
                  {
                    OFFSET 5.0395 -0.09 2.4971
                    CHANNELS 3 Zrotation Xrotation Yrotation
                    JOINT lRing2
                    {
                      OFFSET 3.7921 -1.552 1.4806
                      CHANNELS 3 Zrotation Xrotation Yrotation
                      JOINT lRing2_End
                      {
                        OFFSET 1.4655 -1.808 0.9609
                        CHANNELS 3 Zrotation Xrotation Yrotation
                        End Site
                        {
                          OFFSET 0.0147 -0.0181 0.0096
                        }
                      }
                    }
                  }
                  JOINT lPinky1
                  {
                    OFFSET 4.9141 -1.269 0.3591
                    CHANNELS 3 Zrotation Xrotation Yrotation
                    JOINT lPinky2
                    {
                      OFFSET 3.1477 -1.685 0.8462
                      CHANNELS 3 Zrotation Xrotation Yrotation
                      JOINT lPinky2_End
                      {
                        OFFSET 0.8055 -1.585 0.7955
                        CHANNELS 3 Zrotation Xrotation Yrotation
                        End Site
                        {
                          OFFSET 0.0081 -0.0158 0.008
                        }
                      }
                    }
                  }
                }
              }
            }
          }
        }
        JOINT rCollar
        {
          OFFSET -1.7069 20.075 5.0056
          CHANNELS 3 Zrotation Xrotation Yrotation
          JOINT rShldr
          {
            OFFSET -13.6458 -0.047 -4.849
            CHANNELS 3 Zrotation Xrotation Yrotation
            JOINT rForeArm
            {
              OFFSET -28.3255 -0.9759 2.2888
              CHANNELS 3 Zrotation Xrotation Yrotation
              JOINT rHand
              {
                OFFSET -22.1583 -0.53 10.8316
                CHANNELS 3 Zrotation Xrotation Yrotation
                JOINT rThumb1
                {
                  OFFSET -0.786 0.112 2.5817
                  CHANNELS 3 Zrotation Xrotation Yrotation
                  JOINT rThumb2
                  {
                    OFFSET -0.3601 -0.878 4.2331
                    CHANNELS 3 Zrotation Xrotation Yrotation
                    JOINT rThumb2_End
                    {
                      OFFSET -1.8127 -1.216 2.2227
                      CHANNELS 3 Zrotation Xrotation Yrotation
                      End Site
                      {
                        OFFSET -0.0181 -0.0122 0.0222
                      }
                    }
                  }
                }
                JOINT rCarpal1
                {
                  OFFSET -0.9571 1.114 1.7695
                  CHANNELS 3 Zrotation Xrotation Yrotation
                  JOINT rIndex1
                  {
                    OFFSET -4.1246 0.487 4.1451
                    CHANNELS 3 Zrotation Xrotation Yrotation
                    JOINT rIndex2
                    {
                      OFFSET -3.4052 -1.454 2.7682
                      CHANNELS 3 Zrotation Xrotation Yrotation
                      JOINT rIndex2_End
                      {
                        OFFSET -1.4531 -1.795 1.2713
                        CHANNELS 3 Zrotation Xrotation Yrotation
                        End Site
                        {
                          OFFSET -0.0145 -0.018 0.0127
                        }
                      }
                    }
                  }
                  JOINT rMid1
                  {
                    OFFSET -5.6954 0.21 2.1184
                    CHANNELS 3 Zrotation Xrotation Yrotation
                    JOINT rMid2
                    {
                      OFFSET -3.9766 -1.54 2.3863
                      CHANNELS 3 Zrotation Xrotation Yrotation
                      JOINT rMid2_End
                      {
                        OFFSET -1.4042 -1.926 1.125
                        CHANNELS 3 Zrotation Xrotation Yrotation
                        End Site
                        {
                          OFFSET -0.014 -0.0193 0.0113
                        }
                      }
                    }
                  }
                }
                JOINT rCarpal2
                {
                  OFFSET -2.0956 0.66 -0.3894
                  CHANNELS 3 Zrotation Xrotation Yrotation
                  JOINT rRing1
                  {
                    OFFSET -5.0395 -0.09 2.4971
                    CHANNELS 3 Zrotation Xrotation Yrotation
                    JOINT rRing2
                    {
                      OFFSET -3.7921 -1.552 1.4806
                      CHANNELS 3 Zrotation Xrotation Yrotation
                      JOINT rRing2_End
                      {
                        OFFSET -1.4655 -1.808 0.9609
                        CHANNELS 3 Zrotation Xrotation Yrotation
                        End Site
                        {
                          OFFSET -0.0147 -0.0181 0.0096
                        }
                      }
                    }
                  }
                  JOINT rPinky1
                  {
                    OFFSET -4.9141 -1.269 0.3592
                    CHANNELS 3 Zrotation Xrotation Yrotation
                    JOINT rPinky2
                    {
                      OFFSET -3.1477 -1.685 0.8462
                      CHANNELS 3 Zrotation Xrotation Yrotation
                      JOINT rPinky2_End
                      {
                        OFFSET -0.8055 -1.585 0.7955
                        CHANNELS 3 Zrotation Xrotation Yrotation
                        End Site
                        {
                          OFFSET -0.0081 -0.0158 0.008
                        }
                      }
                    }
                  }
                }
              }
            }
          }
        }
      }
    }
  }
  JOINT lThigh
  {
    OFFSET 8.367 -8.2066 0.5982
    CHANNELS 3 Zrotation Xrotation Yrotation
    JOINT lShin
    {
      OFFSET 2.1923 -43.463 -0.4932
      CHANNELS 3 Zrotation Xrotation Yrotation
      JOINT lFoot
      {
        OFFSET 0.7333 -45.8593 -2.6451
        CHANNELS 3 Zrotation Xrotation Yrotation
        End Site
        {
          OFFSET 2.6618 -4.2699 12.3931
        }
      }
    }
  }
  JOINT rThigh
  {
    OFFSET -8.367 -8.2066 0.5982
    CHANNELS 3 Zrotation Xrotation Yrotation
    JOINT rShin
    {
      OFFSET -2.1923 -43.463 -0.4931
      CHANNELS 3 Zrotation Xrotation Yrotation
      JOINT rFoot
      {
        OFFSET -0.7333 -45.8593 -2.6451
        CHANNELS 3 Zrotation Xrotation Yrotation
        End Site
        {
          OFFSET -2.6618 -4.2699 12.3931
        }
      }
    }
  }
}
MOTION
Frames:	5
Frame Time:	0.0333333
0 91.7903 2.51682 0 0 -0 0 0 -0 0 0 -0 0 0 -0 0 0 -0 0 0 -0 0 0 -0 1.66051 0.0835086 5.75766 -0.0175111 0.895433 15.7816 7.95139e-016 -1.98785e-016 -0 5.46658e-016 -3.97569e-016 -0 5.96354e-016 0 -0 3.97569e-016 1.98785e-016 9.54166e-015 1.49089e-016 -3.97569e-016 -0 6.4605e-016 0 3.18055e-015 5.96354e-016 0 3.18055e-015 8.94531e-016 -1.98785e-016 6.36111e-015 6.4605e-016 0 3.18055e-015 5.96354e-016 0 3.18055e-015 8.94531e-016 -1.98785e-016 6.36111e-015 1.49089e-016 -3.97569e-016 -0 6.4605e-016 0 3.18055e-015 5.96354e-016 0 3.18055e-015 8.94531e-016 -1.98785e-016 6.36111e-015 6.4605e-016 0 3.18055e-015 5.96354e-016 0 3.18055e-015 8.94531e-016 -1.98785e-016 6.36111e-015 0 0 -0 -1.4496 0.0636048 -5.0245 -1.74811 1.20616 -16.8394 -1.19271e-015 1.98785e-016 -3.18055e-015 -3.97569e-016 1.98785e-016 -3.18055e-015 -2.98177e-016 1.98785e-016 -3.18055e-015 -2.98177e-016 3.97569e-016 -0 4.96962e-016 0 -6.36111e-015 -9.93923e-017 3.97569e-016 -0 -8.94531e-016 5.96354e-016 -0 -3.97569e-016 3.97569e-016 -0 -9.93923e-017 3.97569e-016 -0 -8.94531e-016 5.96354e-016 -0 -3.97569e-016 3.97569e-016 -0 4.96962e-016 0 -6.36111e-015 -9.93923e-017 3.97569e-016 -0 -8.94531e-016 5.96354e-016 -0 -3.97569e-016 3.97569e-016 -0 -9.93923e-017 3.97569e-016 -0 -8.94531e-016 5.96354e-016 -0 -3.97569e-016 3.97569e-016 -0 -4.66111 -0.998717 0.12318 0.00986924 1.54847 0.176523 4.65186 -0.572283 -0.254274 4.66111 -0.998765 -0.123176 -0.00986867 1.54869 -0.176537 -4.65186 -0.572453 0.25427 
-17.9907 55.5025 39.1454 0.00856018 4.04008e-015 125.154 0.34805 2.46646 -0.151869 0.703618 4.93194 -0.318932 0.70362 4.93194 -0.318923 0.0665989 7.3658 -0.0115818 -0.0161449 -27.4103 0.0773863 -18.0101 -18.9448 -31.553 -57.2053 22.2173 19.8192 8.9649 17.0769 -0.213115 -13.5193 8.50578 -16.2193 1.59028e-015 -3.18055e-015 1.59028e-015 0 3.18055e-015 -0 0 0 -0 1.59028e-015 -3.18055e-015 1.59028e-015 1.59028e-015 3.18055e-015 1.59028e-015 3.18055e-015 9.54166e-015 3.18055e-015 1.76556e-031 -6.36111e-015 1.59028e-015 1.59028e-015 3.18055e-015 1.59028e-015 3.18055e-015 9.54166e-015 3.18055e-015 1.76556e-031 -6.36111e-015 1.59028e-015 1.59028e-015 -3.18055e-015 1.59028e-015 1.59028e-015 3.18055e-015 1.59028e-015 3.18055e-015 9.54166e-015 3.18055e-015 1.76556e-031 -6.36111e-015 1.59028e-015 1.59028e-015 3.18055e-015 1.59028e-015 3.18055e-015 9.54166e-015 3.18055e-015 1.76556e-031 -6.36111e-015 1.59028e-015 -5.67115 -45.1295 -37.6592 -5.16334 9.43415 21.5085 -31.3065 -45.8876 31.2045 12.7191 -16.4554 -3.76492 4.77083e-015 9.54166e-015 -0 -1.59028e-015 0 -9.54166e-015 4.77083e-015 6.36111e-015 -0 4.77083e-015 3.18055e-015 9.54166e-015 1.76556e-031 3.18055e-015 -3.18055e-015 6.36111e-015 6.36111e-015 -3.18055e-015 -6.36111e-015 3.18055e-015 -6.36111e-015 1.76556e-031 3.18055e-015 -3.18055e-015 6.36111e-015 6.36111e-015 -3.18055e-015 -6.36111e-015 3.18055e-015 -6.36111e-015 4.77083e-015 3.18055e-015 9.54166e-015 1.76556e-031 3.18055e-015 -3.18055e-015 6.36111e-015 6.36111e-015 -3.18055e-015 -6.36111e-015 3.18055e-015 -6.36111e-015 1.76556e-031 3.18055e-015 -3.18055e-015 6.36111e-015 6.36111e-015 -3.18055e-015 -6.36111e-015 3.18055e-015 -6.36111e-015 0.245289 -13.5925 2.86348 23.433 77.6626 -20.5804 12.7928 48.7569 -3.81625 0.819041 -15.2418 -5.01515 -20.9103 77.3889 18.6179 -12.57 48.3693 0.102417 
-32.1082 38.2913 56.0009 0.0124054 7.01439e-015 -178.526 0.510694 3.5953 -0.202051 1.03719 7.18862 -0.437566 1.03719 7.18862 -0.437566 -0.235612 10.8432 0.0406374 -0.0187701 -39.7462 -0.312661 -32.2887 -23.0207 -47.5904 -88.1377 30.9766 28.1317 16.306 22.8947 -9.22185 -19.4819 11.8131 -22.884 1.9859e-006 -1.57555e-006 2.07634e-006 -1.1652e-006 -5.54735e-006 4.00041e-006 -3.18055e-015 -1.59028e-015 3.97569e-016 3.31043e-032 1.59028e-015 -1.19271e-015 1.9859e-006 -1.57555e-006 2.07634e-006 -1.1652e-006 -5.54735e-006 4.00041e-006 -3.18055e-015 0 7.95139e-016 1.9859e-006 -1.57555e-006 2.07634e-006 -1.1652e-006 -5.54735e-006 4.00041e-006 -3.18055e-015 0 7.95139e-016 3.31043e-032 1.59028e-015 -1.19271e-015 1.9859e-006 -1.57555e-006 2.07634e-006 -1.1652e-006 -5.54735e-006 4.00041e-006 -3.18055e-015 0 7.95139e-016 1.9859e-006 -1.57555e-006 2.07634e-006 -1.1652e-006 -5.54735e-006 4.00041e-006 -3.18055e-015 0 7.95139e-016 -32.3353 -50.8181 -70.2471 -9.54892 11.9652 34.0945 -24.7552 -43.3526 63.3608 17.5803 -23.9583 -4.76635 -6.36111e-015 0 -3.18055e-015 3.18055e-015 -3.18055e-015 1.59028e-015 -0 0 6.36111e-015 -3.18055e-015 3.18055e-015 -1.59028e-015 -3.18055e-015 -9.54166e-015 1.59028e-015 -6.36111e-015 -3.18055e-015 1.59028e-015 -9.54166e-015 3.18055e-015 -1.59028e-015 -3.18055e-015 -9.54166e-015 1.59028e-015 -6.36111e-015 -3.18055e-015 1.59028e-015 -9.54166e-015 3.18055e-015 -1.59028e-015 -3.18055e-015 3.18055e-015 -1.59028e-015 -3.18055e-015 -9.54166e-015 1.59028e-015 -6.36111e-015 -3.18055e-015 1.59028e-015 -9.54166e-015 3.18055e-015 -1.59028e-015 -3.18055e-015 -9.54166e-015 1.59028e-015 -6.36111e-015 -3.18055e-015 1.59028e-015 -9.54166e-015 3.18055e-015 -1.59028e-015 2.47271 -20.6747 6.06977 163.098 64.5994 -155.475 22.0279 71.2778 -10.3121 -1.30784 -22.8889 -9.24636 -162.747 65.3299 156.138 -15.9527 70.8079 -0.0835702 
-28.7817 42.0144 52.2182 0.0115509 6.88681e-015 168.958 0.46609 3.38235 -0.187732 0.945782 6.76305 -0.404133 0.945783 6.76304 -0.404132 -0.9078 10.432 0.157539 -0.000170057 -37.0045 -1.1614 -27.8766 -23.3091 -43.7474 -81.7704 28.9735 26.5432 14.8195 21.5187 -8.63581 -18.718 11.058 -20.7119 1.78813e-006 -1.75789e-006 2.05198e-006 3.18055e-015 6.36111e-015 -3.57812e-015 -2.31583e-006 4.00521e-007 5.62823e-006 -1.59028e-015 1.59028e-015 -2.38542e-015 1.78813e-006 -1.75789e-006 2.05198e-006 6.36111e-015 4.77083e-015 4.77083e-015 -2.31583e-006 4.00521e-007 5.62823e-006 1.78813e-006 -1.75789e-006 2.05198e-006 6.36111e-015 4.77083e-015 4.77083e-015 -2.31583e-006 4.00521e-007 5.62823e-006 -1.59028e-015 1.59028e-015 -2.38542e-015 1.78813e-006 -1.75789e-006 2.05198e-006 6.36111e-015 4.77083e-015 4.77083e-015 -2.31583e-006 4.00521e-007 5.62823e-006 1.78813e-006 -1.75789e-006 2.05198e-006 6.36111e-015 4.77083e-015 4.77083e-015 -2.31583e-006 4.00521e-007 5.62823e-006 -24.637 -51.4244 -60.4513 -8.28215 11.7027 31.7702 -25.651 -45.0707 57.3999 16.1306 -21.9303 -3.71942 -1.477e-006 -5.3652e-007 4.22127e-006 -1.59028e-015 -6.36111e-015 -3.18055e-015 -7.95139e-015 -3.18055e-015 -7.95139e-015 -6.36111e-015 -3.18055e-015 -1.59028e-015 -1.477e-006 -5.3652e-007 4.22127e-006 -3.18055e-015 -9.54166e-015 -3.18055e-015 -3.18055e-015 -3.18055e-015 -3.18055e-015 -1.477e-006 -5.3652e-007 4.22127e-006 -3.18055e-015 -9.54166e-015 -3.18055e-015 -3.18055e-015 -3.18055e-015 -3.18055e-015 -6.36111e-015 -3.18055e-015 -1.59028e-015 -1.477e-006 -5.3652e-007 4.22127e-006 -3.18055e-015 -9.54166e-015 -3.18055e-015 -3.18055e-015 -3.18055e-015 -3.18055e-015 -1.477e-006 -5.3652e-007 4.22127e-006 -3.18055e-015 -9.54166e-015 -3.18055e-015 -3.18055e-015 -3.18055e-015 -3.18055e-015 2.05174 -19.5201 5.05176 157.393 71.7913 -151.086 18.9022 66.2181 -7.83321 -0.682356 -21.6531 -8.12875 -157.134 72.4694 151.715 -15.2376 65.7423 -0.0023565 
-28.765 41.9387 52.5502 0.0115509 6.88681e-015 168.958 0.459528 3.41344 -0.184438 0.93258 6.82527 -0.397429 0.93258 6.82527 -0.397428 -1.51505 10.7267 0.266773 -0.000288758 -37.0046 -1.93676 -27.0738 -23.962 -43.5591 -82.3969 28.8361 26.8797 15.0838 21.346 -9.86192 -19.1686 11.0113 -20.1325 -3.18055e-015 6.36111e-015 -2.78299e-015 1.51717e-007 -4.49208e-006 -9.1506e-006 -1.59028e-015 0 1.19271e-015 -3.18055e-015 3.18055e-015 -2.78299e-015 4.77083e-015 4.77083e-015 1.98785e-015 1.51717e-007 -4.49208e-006 -9.1506e-006 1.59028e-015 -1.59028e-015 -1.19271e-015 4.77083e-015 4.77083e-015 1.98785e-015 1.51717e-007 -4.49208e-006 -9.1506e-006 1.59028e-015 -1.59028e-015 -1.19271e-015 -3.18055e-015 3.18055e-015 -2.78299e-015 4.77083e-015 4.77083e-015 1.98785e-015 1.51717e-007 -4.49208e-006 -9.1506e-006 1.59028e-015 -1.59028e-015 -1.19271e-015 4.77083e-015 4.77083e-015 1.98785e-015 1.51717e-007 -4.49208e-006 -9.1506e-006 1.59028e-015 -1.59028e-015 -1.19271e-015 -23.7562 -51.8279 -58.6326 -8.14645 11.8294 32.173 -25.6868 -44.7699 57.4466 15.8055 -21.6468 -3.02992 -1.59028e-015 -3.18055e-015 -4.77083e-015 -3.18055e-015 3.18055e-015 -0 -3.18055e-015 6.36111e-015 -4.77083e-015 -1.59028e-015 -3.18055e-015 -0 -5.29669e-031 -9.54166e-015 -3.18055e-015 -4.77083e-015 3.18055e-015 -6.36111e-015 6.17947e-031 3.18055e-015 -1.11319e-014 -5.29669e-031 -9.54166e-015 -3.18055e-015 -4.77083e-015 3.18055e-015 -6.36111e-015 6.17947e-031 3.18055e-015 -1.11319e-014 -1.59028e-015 -3.18055e-015 -0 -5.29669e-031 -9.54166e-015 -3.18055e-015 -4.77083e-015 3.18055e-015 -6.36111e-015 6.17947e-031 3.18055e-015 -1.11319e-014 -5.29669e-031 -9.54166e-015 -3.18055e-015 -4.77083e-015 3.18055e-015 -6.36111e-015 6.17947e-031 3.18055e-015 -1.11319e-014 2.12101 -19.9859 5.02926 157.719 71.4356 -151.371 18.8834 66.252 -7.80779 -0.593889 -22.1377 -8.2042 -157.509 72.1013 152.044 -15.2149 65.776 -0.0328056 
